<svg id="图层_1" data-name="图层 1" xmlns="http://www.w3.org/2000/svg" viewBox="0 0 120 120"><defs><style>.cls-1{fill-rule:evenodd;}</style></defs><title>jx3</title><g id="图层_1-2" data-name="图层_1"><path class="cls-1" d="M23.85,98.47c.39-7.7.52-11.07,4-15.84a34.86,34.86,0,0,0,11.57,8.5,29.09,29.09,0,0,0,2.92,1.08C36,97.92,32.92,98,23.85,98.47ZM58.47,46.89a18.87,18.87,0,0,0-3.13,2.57,14.83,14.83,0,0,0-3.41,5.16l4.19-4.06a14.38,14.38,0,0,0,2.35-3.67Zm9.74-9.07A19.41,19.41,0,0,0,63.93,39l4.27,1.28C68.21,39.45,68.21,38.64,68.21,37.82Zm9.54-4.49,1.22.52,1-.94a35.63,35.63,0,0,0-4.2-1.66l2,2.08ZM73.09,30.5a44.25,44.25,0,0,0-7.39-1.17c1.58-1.23,5-1.88,7.43-2.43-3.92-1.58-10.75-1.79-16.34,0A8.06,8.06,0,0,1,55.1,30c-1,.89-1.92,1.69-2.74,2.45a28.87,28.87,0,0,1,19.77-1.16l1-.79Zm-43.93-.32c.76,5-1.26,12.93-1.64,13.94S26.63,46.3,25,50.48s-1.54,12.2-.41,14.74c-2.73-1.92-6.08-3-9.28-1.85,5.38,2.75,8.43,8.84,12,13.52C35.48,87.63,45.6,92.65,58.58,89,65,87.25,74.32,74.8,68.82,70,59.3,75.38,49.06,68.5,48.66,58c-.29-7.63,8-15.38,16.08-16.37-3.29-1-4.41-1.5-8.64-.82,3.8-2.79,6.67-5,13.18-5.65A6.2,6.2,0,0,1,71,33.4c-8.14-2.11-20-1.84-30.37,11.84,3.08-6.79,5.3-9.52,13-17,2-2,1.63-4.88,1.37-6.88-2.16,3.55-6.11,5.49-11.5,7.87a26.11,26.11,0,0,0-10.53,8.57c-.68-2.93-1.36-5.56-3.75-7.61ZM68.08,86.12c1-.41,1.93-.83,2.89-1.29-2.73,4.43-9.32,9.37-21.23,10.94,12.73,3.35,24.9,1.44,32.56-6.5-.62,1.08-1.26,2.22-2,3.24C89.74,87.08,102,71.12,93.2,55.74A14.58,14.58,0,0,1,97,60.41,29.8,29.8,0,0,0,90.6,41.2l-2.48,2.52,4.58,4.47-3.42,4.13c-1.67,2-2.77,2-4.84,2H81.55a3.74,3.74,0,0,1-1.18,2.53L80.32,59a4.8,4.8,0,0,1-3.21,4.62h0a14.22,14.22,0,0,0-6.13,4,7.93,7.93,0,0,1,2.4,3.87,11.84,11.84,0,0,1-.83,7.7,25.26,25.26,0,0,1-4.47,7ZM51.92,58.54l6.13-5.94a18.27,18.27,0,0,0,3.74-6.47,1.61,1.61,0,0,1,1.6-.91l4.06-.09.23-.7c.12-.39.28-.45.63-.45h2.62a.25.25,0,0,0,.24-.25l0-5.75c0-1.13,0-1.71.87-2.44L73.91,34l4.65,4.76L90.44,27.09l.74-2.9c.29-1.14,1.09-1.1,2-.34L96,26.33l2.47,2.84c.77.88.81,1.69-.33,2l-2.91.74L83.56,43.77l4.77,4.65L86.8,50.26c-.74.89-1.31.87-2.44.88l-5.76,0a.24.24,0,0,0-.24.24l0,2.62c0,.34,0,.51-.44.63l-.7.22-.09,4.07a1.61,1.61,0,0,1-.92,1.59,18.42,18.42,0,0,0-6.47,3.74L66.5,67.61a9,9,0,0,1-10.72-1.39,12,12,0,0,1-3.73-6.75c-.06-.33-.1-.64-.13-.93Z"/></g></svg>