<svg id="图层_1" data-name="图层 1" xmlns="http://www.w3.org/2000/svg" viewBox="0 0 120 120"><title>yuan</title><path d="M113.68,83.05l.06,0v0l-3.09,1.1-.08-.17L112,82.81c-3.06.82-6,1.74-8.95,2.76a4.74,4.74,0,0,1-5.27-1.12c-3-2.88-6.08-5.64-9-8.56-2-2-3.93-4.26-5.87-6.39a2.86,2.86,0,0,1-.41-3.59c.27-.5.53-1,.81-1.48a16.28,16.28,0,0,0,1.89-8.38l-.49,2.08L81.71,52c-.68,1.09-2.16.71-2.16,2.09,0,3.5-2,6.25-3.6,9.46L66.11,53.32a7.65,7.65,0,0,1,4.71-5.19c2.85-1.25,5.71-2.41,8.59-3.55,1.53-.62,3.08-1.15,4.64-1.71L84,42.64l-3,.77a4.29,4.29,0,0,1,1.88-.88c1.68-.32,3.53.19,5.06-1a.89.89,0,0,1,.81,0c1.18.83,1.82,0,2.64-.81-1.72-1.09-3.3-2.22-5-3.14a4,4,0,0,0-2.59-.44c-3,.77-5.94,1.81-8.91,2.76-1.88.59-3.75,1.21-5.64,1.81l-.17-.31c1.17-1.16,1.37-3.45,3.82-3.14.37.05.81-.43,1.2-.68,4.22-2.79,7.51-6.66,10.79-10.48-.23-.4-.41-.77-.62-1.12-1.33-2.4-2-2.72-4.61-1.89-2,.59-3.9,1.22-5.88,1.76s-3.92,1-6.11,1.53l1.07-2.75-.22-.11-1,.77-.34-.14L67.86,21c.12-.29-.29-.54-.71-.68-1-.37-2.12-.63-3.14-1.06A3.42,3.42,0,0,0,62.87,19h0A3.45,3.45,0,0,0,59,22.06l1.23.5-.65.3c1.75,1.44,1.83,1.86.83,4a25.37,25.37,0,0,1-10,11,2,2,0,0,0-1,2.67c.6,2.21,1.1,4.46,1.68,6.89-2.05.33-3.73,1.58-5.88,1.07a1.85,1.85,0,0,0-2.18,1.38c-.47,1.31-1.18,2.53-1.84,3.91l-.5-.83a32.4,32.4,0,0,0-1.93,3c-.67,1.36-2.39,2.4-1.48,4.32,0,.09-.17.25-.17.38L29.21,71.77a26.79,26.79,0,0,0-2.12-2.63c-1-1-.9-1.82,0-3,3.31-4.27,6.52-8.62,9.76-13a11.21,11.21,0,0,0,.6-1.14l-.22-.14-1.1,1.2c.76-2.59,2.49-5,2.14-8.09l-1.38,1.56c-1.07-2.87-3.46-2.29-6.07-2,.78-.85,1.22-1.39,1.72-1.86a39,39,0,0,1,10.77-7.15,2.61,2.61,0,0,0,1.37-1.1c.4-.93-1-4.54-1.84-5.06-1.79-1.19-3.62-2.4-5.51-3.49-.94-.52-2.07-.7-3-1.17A21.56,21.56,0,0,1,32,23.46a3.59,3.59,0,0,0-1.2-.65A5.48,5.48,0,0,0,26.3,24c.7.57,1.6,1.13,2.36,1.8a10.9,10.9,0,0,1,1.23,1.57l.83,1.09-.63,3.28c.82-1.1.58-2.52,2.08-2.91-.09.5-.13.82-.21,1.12a15,15,0,0,1-4,6.62c-5.08,5.07-9.38,10.92-15.36,15a2,2,0,0,0-.82,2.34c.58,2,1.11,3.94,1.73,5.9.55,1.63.77,1.76,2.45,1.19,2.3-.79,4.59-1.72,6.89-2.54l.14.22c-2.07,2.34-4.15,4.61-6.2,6.88a5,5,0,0,0-.66,6.53c1.29,2.3,1.75,2.3,3.87.92,1.15-.76,2.24-1.47,3.62-2.29a11.52,11.52,0,0,1,.14,1.18,13.74,13.74,0,0,1-2.47,7.86c-1,1.76-2.15,3.49-3,5.33a4.22,4.22,0,0,0,.55,4.7c2.57,3,4.94,6.12,4.54,10.55l2.11-2,1,1.64a9.44,9.44,0,0,0,2.76-1.1,8.59,8.59,0,0,0,2.75-4.41c2.15-8,4.41-15.88,6.69-23.86C39.3,68,40.15,65.52,40.79,63c.48-2.33.38-2.33,2.75-2a3.12,3.12,0,0,0,1.51-.2A23.59,23.59,0,0,0,49,58.92c3.23-2,6.37-4.13,9.61-6.22a25.67,25.67,0,0,1,2.5-1.38l.11.24L40.43,73.78l.3.36,3.54-1.87.14.24L41.65,75.6l.28.27,2.86-2.25.14.12L44.06,75a2.39,2.39,0,0,0,1.56-.54c1.25-1.41,3.54-1.65,4.24-3.7,0-.12.19-.19.3-.29l12.62-11.9c.26-.24.53-.46.82-.71A11.64,11.64,0,0,1,67,69.64L62,68l2.11-1.79c2.48-2,2.48-2,.39-4.37a2,2,0,0,0-.36-.45,1.93,1.93,0,0,0-2.74,0A7.22,7.22,0,0,0,60,62.82q-6.89,8.71-13.77,17.49a12.71,12.71,0,0,0-1,2.17c1.95-.27,2.75-2.36,4.57-1.65.45-.56.89-1,1.21-1.38l1.71,1.28c2-2.45,3.95-4.91,5.92-7.38a5,5,0,0,1,4-2.16c-3.84,8-10.3,13.48-16.24,19.5l2.33-1.24c.15,1.06.7,1,1.38.63a31.91,31.91,0,0,0,9.76-7.17.94.94,0,0,0,0-.47l-2.75,2.32L57,84.59l9.92-10a3.38,3.38,0,0,1,0,.45,65.36,65.36,0,0,1-4.14,15.36c-.38,1-.9,1.51-2.07,1.26A2.55,2.55,0,0,0,59.2,92a10.2,10.2,0,0,1-5.75.66c-1.79-.18-3.58-.3-5.37-.45a3.2,3.2,0,0,0,1.26.82c2.71,1.26,5.48,2.34,8.12,3.72a5.12,5.12,0,0,1,2,2.14A4.27,4.27,0,0,0,62,101.13a38,38,0,0,1,4.27,1.69c1,.44,4-.45,4.38-1.5a66.81,66.81,0,0,0,2.56-8.26c1-5,1.74-10.11,2.56-15.15a5.62,5.62,0,0,1,.27-.82l.37-.11a68.92,68.92,0,0,1,3.56,6c1.28,2.35,2.36,4.82,3.54,7.28a2.77,2.77,0,0,0,.81,1.13q4.14,2.7,8.27,5.33a2.19,2.19,0,0,0,.93.25c1.81.23,3.65.47,5.51.67a8,8,0,0,0,4.13-2.75l-1-.33c3.4-2.49,6.71-4.9,10-7.29v0l-.09.07C112.69,85.9,113.23,84.43,113.68,83.05ZM39.2,63,39,61.38l-1,.89c.51-1.84.84-3.62,3.58-4C40.73,60,40,61.39,39.2,63ZM57.28,37.24v0l0,0c2.16-1.46,4.29-3,6.52-4.35.43-.24,1.32.28,1.7.38l4.24-1.66L70,32c-1.33,1.65-2.32,3.63-4.86,4a75.57,75.57,0,0,0-7.6,1.64l-.22-.38Zm8,5.93c-2.57,1.12-5.18,2.14-7.78,3.2l-.16-.32,8.53-4.42.34.3C65.93,42.35,65.71,43,65.3,43.17Z"/><path d="M114.44,84.44l-.2-.37L120,81.31l-.17-.45L113.74,83l-1.55,4.18c1.12-.82,2.25-1.65,3.39-2.45a31.16,31.16,0,0,1,3.87-2.06l-.17-.31Z"/></svg>